<svg width="25" height="25" viewBox="0 0 25 25" fill="none" xmlns="http://www.w3.org/2000/svg">
<path d="M15.6243 13.5443V5.21094C15.6243 4.38214 15.2951 3.58728 14.7091 3.00123C14.123 2.41518 13.3282 2.08594 12.4993 2.08594C11.6705 2.08594 10.8757 2.41518 10.2896 3.00123C9.70359 3.58728 9.37435 4.38214 9.37435 5.21094V13.5443C8.49984 14.2002 7.85386 15.1146 7.52792 16.158C7.20199 17.2014 7.21261 18.3209 7.55829 19.358C7.90397 20.395 8.56718 21.297 9.45398 21.9362C10.3408 22.5753 11.4062 22.9193 12.4993 22.9193C13.5925 22.9193 14.6579 22.5753 15.5447 21.9362C16.4315 21.297 17.0947 20.395 17.4404 19.358C17.7861 18.3209 17.7967 17.2014 17.4708 16.158C17.1448 15.1146 16.4989 14.2002 15.6243 13.5443ZM12.4993 4.16927C12.7756 4.16927 13.0406 4.27902 13.2359 4.47437C13.4313 4.66972 13.541 4.93467 13.541 5.21094V8.33594H11.4577V5.21094C11.4577 4.93467 11.5674 4.66972 11.7628 4.47437C11.9581 4.27902 12.2231 4.16927 12.4993 4.16927Z" fill="white"/>
</svg>
