<svg width="122" height="45" viewBox="0 0 122 45" fill="none" xmlns="http://www.w3.org/2000/svg">
<g clip-path="url(#clip0_2803_78181)">
<path d="M1.69141 -0.0033094H13.0347C14.4257 -0.0148738 15.8125 0.141657 17.1611 0.462445C18.3066 0.729703 19.396 1.17642 20.384 1.78389C21.2363 2.30612 21.9507 3.00441 22.4731 3.82562C22.9658 4.61893 23.2223 5.52255 23.2155 6.44143C23.2235 7.09624 23.1442 7.74942 22.9795 8.38568C22.8147 8.96086 22.5246 9.49753 22.1278 9.96166C21.6793 10.4913 21.1476 10.9533 20.5509 11.3318C19.7582 11.8314 18.925 12.2714 18.0589 12.6479V12.7291C18.9963 12.8557 19.9093 13.1093 20.7696 13.4819C21.5324 13.8177 22.226 14.2779 22.8184 14.8412C23.4019 15.3973 23.8599 16.0587 24.1651 16.7855C24.4822 17.5536 24.6404 18.3716 24.6312 19.1955C24.6425 20.1539 24.4159 21.1015 23.9694 21.963C23.4975 22.8426 22.8255 23.6137 22.0011 24.2213C21.0752 24.8992 20.0261 25.413 18.9049 25.7377C17.5897 26.1201 16.2181 26.3029 14.8418 26.2793H1.69141V-0.0033094ZM6.41634 11.8355H12.4592C13.3161 11.8487 14.1689 11.7223 14.9799 11.4618C15.6697 11.2346 16.3038 10.8791 16.8446 10.4166C17.3533 9.97838 17.7473 9.43525 17.9956 8.82977C18.2599 8.195 18.3927 7.51852 18.3869 6.83678C18.3977 6.11609 18.2385 5.40212 17.9208 4.7463C17.5948 4.09584 17.0951 3.53605 16.4705 3.12158C15.7098 2.63155 14.8559 2.28402 13.9555 2.098C12.7629 1.84106 11.5416 1.72104 10.3183 1.74056H6.41634V11.8355ZM6.41634 24.3675H11.5269C12.7298 24.3845 13.9303 24.2608 15.1008 23.9993C15.9963 23.8039 16.8453 23.4531 17.6043 22.9649C18.2278 22.5601 18.731 22.012 19.066 21.3726C19.3875 20.733 19.5508 20.0331 19.5437 19.3255C19.55 18.5351 19.4058 17.7501 19.1178 17.0075C18.8324 16.2898 18.3546 15.6536 17.7309 15.1608C16.9904 14.5883 16.1322 14.1661 15.2101 13.9206C13.9634 13.5917 12.6717 13.4384 11.3772 13.4656H6.41634V24.3675Z" fill="white"/>
<path d="M41.7989 -0.59375L55.0357 26.3008H50.1899L45.9081 17.5328H33.8224L29.414 26.3008H27.0371L40.5846 -0.59375H41.7989ZM34.6684 15.8268H45.0275L39.9285 5.41773L34.6684 15.8268Z" fill="white"/>
<path d="M58.125 -0.00390625H62.8499V17.0719C62.8429 18.1532 63.0518 19.2261 63.4657 20.2347C63.8613 21.2005 64.4604 22.0811 65.2268 22.8235C66.0132 23.5793 66.9551 24.1764 67.995 24.5782C70.3219 25.4374 72.9079 25.4374 75.2349 24.5782C76.2581 24.1841 77.1841 23.5961 77.9554 22.8507C78.7267 22.1053 79.3267 21.2185 79.7181 20.2456C80.1157 19.2338 80.3108 18.1614 80.2936 17.0828V-0.00390625H82.3712V17.0719C82.3795 18.3649 82.1417 19.6489 81.6691 20.863C81.2052 22.0503 80.4546 23.1201 79.4764 23.9879C78.3727 24.9398 77.0688 25.6631 75.6493 26.1108C73.845 26.6672 71.9534 26.9309 70.0553 26.8907C68.3047 26.92 66.5625 26.656 64.9102 26.1108C63.5202 25.6433 62.2441 24.9177 61.1579 23.977C60.1559 23.0923 59.3704 22.0131 58.8559 20.8142C58.3375 19.58 58.0757 18.2636 58.0847 16.9366L58.125 -0.00390625Z" fill="white"/>
<path d="M89.5806 -0.00390625H94.4148L105.35 20.1643H105.58L116.307 -0.00390625H121.061V26.295H116.307V4.73487H116.163L104.653 26.295H103.675L91.992 4.91359H91.6754V26.295H89.5806V-0.00390625Z" fill="white"/>
<path d="M13.0482 33.4297L4.41555 43.2322H13.0482V43.9146H1.72217V43.6492L10.1016 34.1175H1.72217V33.4297H13.0482Z" fill="white"/>
<path d="M21.2441 33.4297H23.2463V43.9146H21.2441V33.4297Z" fill="white"/>
<path d="M32.9834 33.4297H34.1344L41.9268 41.0984H42.0131V33.4297H42.8994V44.1583H42.4275L33.9618 35.6339H33.8927V43.9146H32.9834V33.4297Z" fill="white"/>
<path d="M52.6177 33.4311H56.5944C57.6566 33.4162 58.7169 33.518 59.754 33.7344C60.5557 33.8976 61.3087 34.2269 61.9582 34.6984C62.5974 35.1627 63.1168 35.757 63.4775 36.4369C63.8242 37.1117 63.9977 37.8537 63.984 38.6031C63.9901 39.3188 63.8352 40.0276 63.5293 40.6828C63.2277 41.3349 62.7732 41.9144 62.1999 42.3779C61.5634 42.8891 60.8261 43.2774 60.0302 43.5206C59.0781 43.8158 58.0802 43.9586 57.0779 43.9431H52.6177V33.4311ZM54.6262 43.147H56.7786C57.4247 43.1512 58.0669 43.0523 58.6778 42.8545C59.2584 42.6679 59.7902 42.3671 60.2377 41.9721C60.6853 41.5771 61.0383 41.097 61.2733 40.5637C61.5384 39.9464 61.6676 39.285 61.6532 38.6194C61.6599 38.0074 61.5386 37.4002 61.2964 36.8322C61.0651 36.3084 60.7224 35.8347 60.2892 35.4404C59.8446 35.0435 59.3202 34.7342 58.7469 34.5305C58.1216 34.3092 57.4581 34.199 56.7901 34.2056H54.6262V43.147Z" fill="white"/>
<path d="M81.4523 33.4297V34.1175H75.162V37.8544H79.3747V38.5367H75.162V43.2322H81.4523V43.9146H73.1592V33.4297H81.4523Z" fill="white"/>
<path d="M92.1498 38.7178C92.1382 39.392 92.2672 40.0617 92.5296 40.6891C92.762 41.2443 93.1148 41.7479 93.5655 42.1676C94.013 42.5757 94.5462 42.8912 95.1309 43.0937C95.7554 43.3102 96.4164 43.4184 97.0819 43.4133C97.497 43.4139 97.9087 43.3423 98.2962 43.202C98.6794 43.0646 99.0429 42.8827 99.3782 42.6605C99.7066 42.434 100.008 42.1743 100.276 41.886C100.525 41.6188 100.741 41.3263 100.921 41.0141L101.767 41.4852C101.513 41.8503 101.222 42.1913 100.898 42.5034C100.163 43.201 99.2459 43.7036 98.2387 43.9602C97.6326 44.1134 97.0072 44.1881 96.3798 44.1823C95.4615 44.1931 94.5487 44.0463 93.6864 43.749C92.922 43.4837 92.2187 43.0829 91.6145 42.5684C90.6571 41.7537 90.0349 40.6478 89.8571 39.4447C89.6793 38.2416 89.9571 37.0179 90.6419 35.9883C90.9207 35.5739 91.2575 35.1968 91.6433 34.8672C92.0431 34.5205 92.4901 34.2254 92.9727 33.9899C93.4865 33.744 94.0321 33.5619 94.5957 33.4483C95.212 33.3091 95.8438 33.24 96.4776 33.2425C97.0733 33.2368 97.6666 33.3135 98.2387 33.4699C98.7521 33.6109 99.245 33.811 99.7062 34.0657C100.124 34.3083 100.51 34.5955 100.857 34.9214C101.19 35.2304 101.487 35.5717 101.744 35.9395L100.874 36.4432C100.478 35.7096 99.9042 35.0735 99.1998 34.5856C98.571 34.1881 97.8277 33.982 97.0704 33.9953C96.4076 33.9898 95.7496 34.1019 95.1309 34.3256C94.5377 34.5402 93.9985 34.8686 93.5477 35.2901C93.0968 35.7115 92.7442 36.2168 92.5123 36.7735C92.2595 37.3936 92.1364 38.0538 92.1498 38.7178Z" fill="white"/>
<path d="M113.069 38.8833V43.9146H111.061V33.4297H113.069V38.2064H119.06V33.4297H121.069V43.9146H119.06V38.8833H113.069Z" fill="white"/>
</g>
<defs>
<clipPath id="clip0_2803_78181">
<rect width="120.109" height="44.16" fill="white" transform="translate(0.945312)"/>
</clipPath>
</defs>
</svg>
